<svg xmlns="http://www.w3.org/2000/svg" xmlns:xlink="http://www.w3.org/1999/xlink" width="500" zoomAndPan="magnify" viewBox="0 0 375 374.999991" height="500" preserveAspectRatio="xMidYMid meet" version="1.0"><defs><g/></defs><g fill="#000000" fill-opacity="1"><g transform="translate(77.95123, 157.888087)"><g><path d="M 12.0625 0.3125 C 10.144531 0.3125 8.441406 -0.125 6.953125 -1 C 5.460938 -1.875 4.289062 -3.15625 3.4375 -4.84375 C 2.59375 -6.53125 2.171875 -8.550781 2.171875 -10.90625 C 2.171875 -13.269531 2.59375 -15.289062 3.4375 -16.96875 C 4.289062 -18.65625 5.460938 -19.9375 6.953125 -20.8125 C 8.441406 -21.6875 10.144531 -22.125 12.0625 -22.125 C 14.09375 -22.125 15.785156 -21.738281 17.140625 -20.96875 C 18.492188 -20.195312 19.472656 -19.035156 20.078125 -17.484375 L 18.4375 -16.40625 L 18.0625 -16.40625 C 17.457031 -17.644531 16.675781 -18.523438 15.71875 -19.046875 C 14.769531 -19.566406 13.550781 -19.828125 12.0625 -19.828125 C 10.6875 -19.828125 9.46875 -19.519531 8.40625 -18.90625 C 7.34375 -18.300781 6.492188 -17.332031 5.859375 -16 C 5.234375 -14.675781 4.921875 -12.976562 4.921875 -10.90625 C 4.921875 -8.84375 5.234375 -7.144531 5.859375 -5.8125 C 6.492188 -4.488281 7.34375 -3.519531 8.40625 -2.90625 C 9.46875 -2.300781 10.6875 -2 12.0625 -2 C 13.644531 -2 14.9375 -2.351562 15.9375 -3.0625 C 16.9375 -3.78125 17.679688 -4.929688 18.171875 -6.515625 L 18.546875 -6.515625 L 20.265625 -5.671875 C 19.742188 -3.742188 18.785156 -2.265625 17.390625 -1.234375 C 15.992188 -0.203125 14.21875 0.3125 12.0625 0.3125 Z M 12.0625 0.3125 "/></g></g></g><g fill="#000000" fill-opacity="1"><g transform="translate(99.352277, 157.888087)"><g><path d="M 2.859375 0 L 2.859375 -16.453125 L 5.171875 -16.453125 L 5.171875 -13.875 L 5.484375 -13.796875 C 6.253906 -15.671875 7.695312 -16.609375 9.8125 -16.609375 C 10.9375 -16.609375 11.78125 -16.40625 12.34375 -16 L 11.71875 -13.9375 L 11.421875 -13.875 C 10.796875 -14.1875 10.117188 -14.34375 9.390625 -14.34375 C 8.078125 -14.34375 7.066406 -13.847656 6.359375 -12.859375 C 5.648438 -11.878906 5.296875 -10.285156 5.296875 -8.078125 L 5.296875 0 Z M 2.859375 0 "/></g></g></g><g fill="#000000" fill-opacity="1"><g transform="translate(112.067544, 157.888087)"><g><path d="M 15.6875 -7.671875 L 4.375 -7.671875 C 4.445312 -5.671875 4.925781 -4.203125 5.8125 -3.265625 C 6.695312 -2.328125 7.914062 -1.859375 9.46875 -1.859375 C 10.644531 -1.859375 11.59375 -2.066406 12.3125 -2.484375 C 13.03125 -2.910156 13.59375 -3.570312 14 -4.46875 L 14.3125 -4.46875 L 15.890625 -3.515625 C 15.410156 -2.328125 14.644531 -1.390625 13.59375 -0.703125 C 12.550781 -0.0234375 11.175781 0.3125 9.46875 0.3125 C 7.882812 0.3125 6.519531 0 5.375 -0.625 C 4.226562 -1.25 3.347656 -2.195312 2.734375 -3.46875 C 2.117188 -4.75 1.8125 -6.332031 1.8125 -8.21875 C 1.8125 -10.09375 2.132812 -11.671875 2.78125 -12.953125 C 3.4375 -14.234375 4.328125 -15.191406 5.453125 -15.828125 C 6.578125 -16.460938 7.867188 -16.78125 9.328125 -16.78125 C 11.429688 -16.78125 13.078125 -16.179688 14.265625 -14.984375 C 15.453125 -13.796875 16.050781 -12.035156 16.0625 -9.703125 C 16.0625 -8.785156 16.039062 -8.164062 16 -7.84375 Z M 13.65625 -9.703125 C 13.613281 -11.453125 13.222656 -12.722656 12.484375 -13.515625 C 11.753906 -14.316406 10.703125 -14.71875 9.328125 -14.71875 C 7.878906 -14.71875 6.742188 -14.316406 5.921875 -13.515625 C 5.109375 -12.710938 4.613281 -11.441406 4.4375 -9.703125 Z M 13.65625 -9.703125 "/></g></g></g><g fill="#000000" fill-opacity="1"><g transform="translate(129.618194, 157.888087)"><g><path d="M 6.796875 0.3125 C 5.171875 0.3125 3.898438 -0.109375 2.984375 -0.953125 C 2.078125 -1.796875 1.625 -3.003906 1.625 -4.578125 C 1.625 -5.554688 1.820312 -6.378906 2.21875 -7.046875 C 2.625 -7.722656 3.25 -8.269531 4.09375 -8.6875 C 4.945312 -9.113281 6.054688 -9.441406 7.421875 -9.671875 C 8.609375 -9.867188 9.515625 -10.09375 10.140625 -10.34375 C 10.765625 -10.59375 11.179688 -10.867188 11.390625 -11.171875 C 11.609375 -11.484375 11.71875 -11.875 11.71875 -12.34375 C 11.71875 -13.082031 11.457031 -13.648438 10.9375 -14.046875 C 10.425781 -14.453125 9.601562 -14.65625 8.46875 -14.65625 C 7.40625 -14.65625 6.492188 -14.445312 5.734375 -14.03125 C 4.972656 -13.625 4.273438 -13.007812 3.640625 -12.1875 L 3.34375 -12.1875 L 2.15625 -13.875 C 2.84375 -14.757812 3.722656 -15.460938 4.796875 -15.984375 C 5.878906 -16.515625 7.101562 -16.78125 8.46875 -16.78125 C 10.414062 -16.78125 11.847656 -16.351562 12.765625 -15.5 C 13.679688 -14.644531 14.140625 -13.46875 14.140625 -11.96875 L 14.140625 -3.234375 C 14.140625 -2.316406 14.53125 -1.859375 15.3125 -1.859375 C 15.570312 -1.859375 15.820312 -1.90625 16.0625 -2 L 16.265625 -1.9375 L 16.546875 -0.25 C 16.367188 -0.132812 16.132812 -0.046875 15.84375 0.015625 C 15.550781 0.0859375 15.25 0.125 14.9375 0.125 C 14.03125 0.125 13.34375 -0.0703125 12.875 -0.46875 C 12.414062 -0.875 12.125 -1.460938 12 -2.234375 L 11.6875 -2.265625 C 11.21875 -1.398438 10.582031 -0.753906 9.78125 -0.328125 C 8.988281 0.0976562 7.992188 0.3125 6.796875 0.3125 Z M 7.328125 -1.625 C 8.242188 -1.625 9.035156 -1.832031 9.703125 -2.25 C 10.378906 -2.675781 10.894531 -3.269531 11.25 -4.03125 C 11.613281 -4.800781 11.796875 -5.691406 11.796875 -6.703125 L 11.796875 -8.796875 L 11.5 -8.84375 C 11.132812 -8.59375 10.6875 -8.378906 10.15625 -8.203125 C 9.632812 -8.023438 8.898438 -7.867188 7.953125 -7.734375 C 6.992188 -7.597656 6.234375 -7.394531 5.671875 -7.125 C 5.109375 -6.863281 4.707031 -6.523438 4.46875 -6.109375 C 4.238281 -5.691406 4.125 -5.179688 4.125 -4.578125 C 4.125 -3.617188 4.40625 -2.882812 4.96875 -2.375 C 5.53125 -1.875 6.316406 -1.625 7.328125 -1.625 Z M 7.328125 -1.625 "/></g></g></g><g fill="#000000" fill-opacity="1"><g transform="translate(146.646514, 157.888087)"><g><path d="M 11.125 -2.609375 L 11.90625 -0.859375 C 11.519531 -0.472656 11.007812 -0.179688 10.375 0.015625 C 9.75 0.210938 9.066406 0.3125 8.328125 0.3125 C 5.179688 0.3125 3.609375 -1.28125 3.609375 -4.46875 L 3.609375 -14.46875 L 0.75 -14.46875 L 0.75 -16.46875 L 3.609375 -16.46875 L 3.609375 -19.953125 L 6.046875 -20.359375 L 6.046875 -16.46875 L 11.34375 -16.46875 L 11.34375 -14.46875 L 6.046875 -14.46875 L 6.046875 -4.703125 C 6.046875 -2.804688 6.863281 -1.859375 8.5 -1.859375 C 9.394531 -1.859375 10.164062 -2.109375 10.8125 -2.609375 Z M 11.125 -2.609375 "/></g></g></g><g fill="#000000" fill-opacity="1"><g transform="translate(159.182693, 157.888087)"><g><path d="M 4.09375 -19.640625 C 3.570312 -19.640625 3.148438 -19.800781 2.828125 -20.125 C 2.503906 -20.445312 2.34375 -20.859375 2.34375 -21.359375 C 2.34375 -21.847656 2.503906 -22.253906 2.828125 -22.578125 C 3.148438 -22.910156 3.570312 -23.078125 4.09375 -23.078125 C 4.601562 -23.078125 5.019531 -22.910156 5.34375 -22.578125 C 5.664062 -22.253906 5.828125 -21.847656 5.828125 -21.359375 C 5.828125 -20.859375 5.664062 -20.445312 5.34375 -20.125 C 5.019531 -19.800781 4.601562 -19.640625 4.09375 -19.640625 Z M 2.859375 0 L 2.859375 -16.453125 L 5.296875 -16.453125 L 5.296875 0 Z M 2.859375 0 "/></g></g></g><g fill="#000000" fill-opacity="1"><g transform="translate(167.346144, 157.888087)"><g><path d="M 9.453125 0.3125 C 7.992188 0.3125 6.6875 -0.015625 5.53125 -0.671875 C 4.382812 -1.335938 3.476562 -2.3125 2.8125 -3.59375 C 2.144531 -4.882812 1.8125 -6.425781 1.8125 -8.21875 C 1.8125 -10.019531 2.144531 -11.5625 2.8125 -12.84375 C 3.476562 -14.132812 4.382812 -15.113281 5.53125 -15.78125 C 6.6875 -16.445312 7.992188 -16.78125 9.453125 -16.78125 C 11.191406 -16.78125 12.570312 -16.445312 13.59375 -15.78125 C 14.625 -15.125 15.367188 -14.25 15.828125 -13.15625 L 14.171875 -11.96875 L 13.875 -11.96875 C 13.425781 -12.875 12.851562 -13.535156 12.15625 -13.953125 C 11.457031 -14.378906 10.554688 -14.59375 9.453125 -14.59375 C 8.429688 -14.59375 7.535156 -14.351562 6.765625 -13.875 C 6.003906 -13.394531 5.410156 -12.675781 4.984375 -11.71875 C 4.566406 -10.769531 4.359375 -9.601562 4.359375 -8.21875 C 4.359375 -6.84375 4.570312 -5.679688 5 -4.734375 C 5.425781 -3.785156 6.019531 -3.066406 6.78125 -2.578125 C 7.539062 -2.097656 8.429688 -1.859375 9.453125 -1.859375 C 10.585938 -1.859375 11.53125 -2.117188 12.28125 -2.640625 C 13.039062 -3.160156 13.632812 -3.976562 14.0625 -5.09375 L 14.375 -5.09375 L 15.96875 -4.15625 C 15.539062 -2.769531 14.773438 -1.675781 13.671875 -0.875 C 12.578125 -0.0820312 11.171875 0.3125 9.453125 0.3125 Z M 9.453125 0.3125 "/></g></g></g><g fill="#000000" fill-opacity="1"><g transform="translate(184.314768, 157.888087)"><g><path d="M 15.6875 -7.671875 L 4.375 -7.671875 C 4.445312 -5.671875 4.925781 -4.203125 5.8125 -3.265625 C 6.695312 -2.328125 7.914062 -1.859375 9.46875 -1.859375 C 10.644531 -1.859375 11.59375 -2.066406 12.3125 -2.484375 C 13.03125 -2.910156 13.59375 -3.570312 14 -4.46875 L 14.3125 -4.46875 L 15.890625 -3.515625 C 15.410156 -2.328125 14.644531 -1.390625 13.59375 -0.703125 C 12.550781 -0.0234375 11.175781 0.3125 9.46875 0.3125 C 7.882812 0.3125 6.519531 0 5.375 -0.625 C 4.226562 -1.25 3.347656 -2.195312 2.734375 -3.46875 C 2.117188 -4.75 1.8125 -6.332031 1.8125 -8.21875 C 1.8125 -10.09375 2.132812 -11.671875 2.78125 -12.953125 C 3.4375 -14.234375 4.328125 -15.191406 5.453125 -15.828125 C 6.578125 -16.460938 7.867188 -16.78125 9.328125 -16.78125 C 11.429688 -16.78125 13.078125 -16.179688 14.265625 -14.984375 C 15.453125 -13.796875 16.050781 -12.035156 16.0625 -9.703125 C 16.0625 -8.785156 16.039062 -8.164062 16 -7.84375 Z M 13.65625 -9.703125 C 13.613281 -11.453125 13.222656 -12.722656 12.484375 -13.515625 C 11.753906 -14.316406 10.703125 -14.71875 9.328125 -14.71875 C 7.878906 -14.71875 6.742188 -14.316406 5.921875 -13.515625 C 5.109375 -12.710938 4.613281 -11.441406 4.4375 -9.703125 Z M 13.65625 -9.703125 "/></g></g></g><g fill="#000000" fill-opacity="1"><g transform="translate(201.865418, 157.888087)"><g/></g></g><g fill="#000000" fill-opacity="1"><g transform="translate(209.357277, 157.888087)"><g><path d="M 4.09375 -19.640625 C 3.570312 -19.640625 3.148438 -19.800781 2.828125 -20.125 C 2.503906 -20.445312 2.34375 -20.859375 2.34375 -21.359375 C 2.34375 -21.847656 2.503906 -22.253906 2.828125 -22.578125 C 3.148438 -22.910156 3.570312 -23.078125 4.09375 -23.078125 C 4.601562 -23.078125 5.019531 -22.910156 5.34375 -22.578125 C 5.664062 -22.253906 5.828125 -21.847656 5.828125 -21.359375 C 5.828125 -20.859375 5.664062 -20.445312 5.34375 -20.125 C 5.019531 -19.800781 4.601562 -19.640625 4.09375 -19.640625 Z M 2.859375 0 L 2.859375 -16.453125 L 5.296875 -16.453125 L 5.296875 0 Z M 2.859375 0 "/></g></g></g><g fill="#000000" fill-opacity="1"><g transform="translate(217.520728, 157.888087)"><g><path d="M 2.859375 0 L 2.859375 -16.453125 L 5.171875 -16.453125 L 5.171875 -14.03125 L 5.484375 -13.96875 C 6.046875 -14.894531 6.722656 -15.59375 7.515625 -16.0625 C 8.304688 -16.539062 9.253906 -16.78125 10.359375 -16.78125 C 11.628906 -16.78125 12.613281 -16.535156 13.3125 -16.046875 C 14.007812 -15.566406 14.550781 -14.789062 14.9375 -13.71875 L 15.25 -13.71875 C 15.820312 -14.71875 16.519531 -15.476562 17.34375 -16 C 18.175781 -16.519531 19.203125 -16.78125 20.421875 -16.78125 C 22.109375 -16.78125 23.363281 -16.320312 24.1875 -15.40625 C 25.019531 -14.488281 25.4375 -13.09375 25.4375 -11.21875 L 25.4375 0 L 23.015625 0 L 23.015625 -11.15625 C 23.015625 -12.351562 22.757812 -13.234375 22.25 -13.796875 C 21.75 -14.367188 20.941406 -14.65625 19.828125 -14.65625 C 18.515625 -14.65625 17.441406 -14.175781 16.609375 -13.21875 C 15.785156 -12.269531 15.375 -10.695312 15.375 -8.5 L 15.375 0 L 12.9375 0 L 12.9375 -11.15625 C 12.9375 -12.351562 12.6875 -13.234375 12.1875 -13.796875 C 11.6875 -14.367188 10.878906 -14.65625 9.765625 -14.65625 C 8.453125 -14.65625 7.378906 -14.191406 6.546875 -13.265625 C 5.710938 -12.335938 5.296875 -10.835938 5.296875 -8.765625 L 5.296875 0 Z M 2.859375 0 "/></g></g></g><g fill="#000000" fill-opacity="1"><g transform="translate(245.577889, 157.888087)"><g><path d="M 6.796875 0.3125 C 5.171875 0.3125 3.898438 -0.109375 2.984375 -0.953125 C 2.078125 -1.796875 1.625 -3.003906 1.625 -4.578125 C 1.625 -5.554688 1.820312 -6.378906 2.21875 -7.046875 C 2.625 -7.722656 3.25 -8.269531 4.09375 -8.6875 C 4.945312 -9.113281 6.054688 -9.441406 7.421875 -9.671875 C 8.609375 -9.867188 9.515625 -10.09375 10.140625 -10.34375 C 10.765625 -10.59375 11.179688 -10.867188 11.390625 -11.171875 C 11.609375 -11.484375 11.71875 -11.875 11.71875 -12.34375 C 11.71875 -13.082031 11.457031 -13.648438 10.9375 -14.046875 C 10.425781 -14.453125 9.601562 -14.65625 8.46875 -14.65625 C 7.40625 -14.65625 6.492188 -14.445312 5.734375 -14.03125 C 4.972656 -13.625 4.273438 -13.007812 3.640625 -12.1875 L 3.34375 -12.1875 L 2.15625 -13.875 C 2.84375 -14.757812 3.722656 -15.460938 4.796875 -15.984375 C 5.878906 -16.515625 7.101562 -16.78125 8.46875 -16.78125 C 10.414062 -16.78125 11.847656 -16.351562 12.765625 -15.5 C 13.679688 -14.644531 14.140625 -13.46875 14.140625 -11.96875 L 14.140625 -3.234375 C 14.140625 -2.316406 14.53125 -1.859375 15.3125 -1.859375 C 15.570312 -1.859375 15.820312 -1.90625 16.0625 -2 L 16.265625 -1.9375 L 16.546875 -0.25 C 16.367188 -0.132812 16.132812 -0.046875 15.84375 0.015625 C 15.550781 0.0859375 15.25 0.125 14.9375 0.125 C 14.03125 0.125 13.34375 -0.0703125 12.875 -0.46875 C 12.414062 -0.875 12.125 -1.460938 12 -2.234375 L 11.6875 -2.265625 C 11.21875 -1.398438 10.582031 -0.753906 9.78125 -0.328125 C 8.988281 0.0976562 7.992188 0.3125 6.796875 0.3125 Z M 7.328125 -1.625 C 8.242188 -1.625 9.035156 -1.832031 9.703125 -2.25 C 10.378906 -2.675781 10.894531 -3.269531 11.25 -4.03125 C 11.613281 -4.800781 11.796875 -5.691406 11.796875 -6.703125 L 11.796875 -8.796875 L 11.5 -8.84375 C 11.132812 -8.59375 10.6875 -8.378906 10.15625 -8.203125 C 9.632812 -8.023438 8.898438 -7.867188 7.953125 -7.734375 C 6.992188 -7.597656 6.234375 -7.394531 5.671875 -7.125 C 5.109375 -6.863281 4.707031 -6.523438 4.46875 -6.109375 C 4.238281 -5.691406 4.125 -5.179688 4.125 -4.578125 C 4.125 -3.617188 4.40625 -2.882812 4.96875 -2.375 C 5.53125 -1.875 6.316406 -1.625 7.328125 -1.625 Z M 7.328125 -1.625 "/></g></g></g><g fill="#000000" fill-opacity="1"><g transform="translate(262.606209, 157.888087)"><g><path d="M 8.46875 6.984375 C 5.875 6.984375 3.976562 6.550781 2.78125 5.6875 C 1.59375 4.820312 1 3.671875 1 2.234375 C 1 1.304688 1.273438 0.566406 1.828125 0.015625 C 2.390625 -0.523438 3.203125 -0.914062 4.265625 -1.15625 L 4.265625 -1.46875 C 3.753906 -1.75 3.375 -2.082031 3.125 -2.46875 C 2.875 -2.863281 2.75 -3.328125 2.75 -3.859375 C 2.75 -4.492188 2.945312 -5.007812 3.34375 -5.40625 C 3.75 -5.8125 4.351562 -6.117188 5.15625 -6.328125 L 5.15625 -6.640625 C 3.363281 -7.585938 2.46875 -9.125 2.46875 -11.25 C 2.46875 -12.320312 2.707031 -13.273438 3.1875 -14.109375 C 3.675781 -14.953125 4.375 -15.609375 5.28125 -16.078125 C 6.1875 -16.546875 7.242188 -16.78125 8.453125 -16.78125 C 9.828125 -16.78125 10.976562 -16.472656 11.90625 -15.859375 C 12.257812 -16.242188 12.519531 -16.65625 12.6875 -17.09375 C 12.863281 -17.539062 12.976562 -18.046875 13.03125 -18.609375 L 13.34375 -18.796875 L 15.34375 -18.328125 C 15.238281 -17.492188 14.984375 -16.785156 14.578125 -16.203125 C 14.179688 -15.628906 13.613281 -15.15625 12.875 -14.78125 L 12.875 -14.453125 C 13.40625 -14.035156 13.796875 -13.546875 14.046875 -12.984375 C 14.304688 -12.421875 14.4375 -11.769531 14.4375 -11.03125 C 14.4375 -9.988281 14.1875 -9.054688 13.6875 -8.234375 C 13.1875 -7.410156 12.484375 -6.757812 11.578125 -6.28125 C 10.671875 -5.8125 9.628906 -5.578125 8.453125 -5.578125 C 8.304688 -5.578125 8.054688 -5.585938 7.703125 -5.609375 C 7.304688 -5.628906 7.007812 -5.640625 6.8125 -5.640625 C 6.300781 -5.640625 5.890625 -5.503906 5.578125 -5.234375 C 5.273438 -4.960938 5.125 -4.617188 5.125 -4.203125 C 5.125 -3.691406 5.289062 -3.3125 5.625 -3.0625 C 5.957031 -2.820312 6.503906 -2.6875 7.265625 -2.65625 L 11.15625 -2.515625 C 12.84375 -2.460938 14.085938 -2.070312 14.890625 -1.34375 C 15.703125 -0.625 16.109375 0.394531 16.109375 1.71875 C 16.109375 2.695312 15.84375 3.582031 15.3125 4.375 C 14.789062 5.164062 13.957031 5.796875 12.8125 6.265625 C 11.675781 6.742188 10.226562 6.984375 8.46875 6.984375 Z M 8.453125 -7.671875 C 9.609375 -7.671875 10.503906 -7.972656 11.140625 -8.578125 C 11.785156 -9.179688 12.109375 -10.03125 12.109375 -11.125 C 12.109375 -12.257812 11.789062 -13.132812 11.15625 -13.75 C 10.519531 -14.375 9.617188 -14.6875 8.453125 -14.6875 C 7.273438 -14.6875 6.375 -14.378906 5.75 -13.765625 C 5.132812 -13.148438 4.828125 -12.269531 4.828125 -11.125 C 4.828125 -10.019531 5.132812 -9.164062 5.75 -8.5625 C 6.375 -7.96875 7.273438 -7.671875 8.453125 -7.671875 Z M 8.46875 4.890625 C 9.6875 4.890625 10.679688 4.753906 11.453125 4.484375 C 12.222656 4.222656 12.773438 3.867188 13.109375 3.421875 C 13.453125 2.984375 13.625 2.488281 13.625 1.9375 C 13.625 1.445312 13.53125 1.050781 13.34375 0.75 C 13.164062 0.457031 12.867188 0.234375 12.453125 0.078125 C 12.046875 -0.0664062 11.492188 -0.15625 10.796875 -0.1875 L 7.109375 -0.375 L 6.578125 -0.375 C 4.515625 -0.34375 3.484375 0.457031 3.484375 2.03125 C 3.484375 3.9375 5.144531 4.890625 8.46875 4.890625 Z M 8.46875 4.890625 "/></g></g></g><g fill="#000000" fill-opacity="1"><g transform="translate(279.470354, 157.888087)"><g><path d="M 15.6875 -7.671875 L 4.375 -7.671875 C 4.445312 -5.671875 4.925781 -4.203125 5.8125 -3.265625 C 6.695312 -2.328125 7.914062 -1.859375 9.46875 -1.859375 C 10.644531 -1.859375 11.59375 -2.066406 12.3125 -2.484375 C 13.03125 -2.910156 13.59375 -3.570312 14 -4.46875 L 14.3125 -4.46875 L 15.890625 -3.515625 C 15.410156 -2.328125 14.644531 -1.390625 13.59375 -0.703125 C 12.550781 -0.0234375 11.175781 0.3125 9.46875 0.3125 C 7.882812 0.3125 6.519531 0 5.375 -0.625 C 4.226562 -1.25 3.347656 -2.195312 2.734375 -3.46875 C 2.117188 -4.75 1.8125 -6.332031 1.8125 -8.21875 C 1.8125 -10.09375 2.132812 -11.671875 2.78125 -12.953125 C 3.4375 -14.234375 4.328125 -15.191406 5.453125 -15.828125 C 6.578125 -16.460938 7.867188 -16.78125 9.328125 -16.78125 C 11.429688 -16.78125 13.078125 -16.179688 14.265625 -14.984375 C 15.453125 -13.796875 16.050781 -12.035156 16.0625 -9.703125 C 16.0625 -8.785156 16.039062 -8.164062 16 -7.84375 Z M 13.65625 -9.703125 C 13.613281 -11.453125 13.222656 -12.722656 12.484375 -13.515625 C 11.753906 -14.316406 10.703125 -14.71875 9.328125 -14.71875 C 7.878906 -14.71875 6.742188 -14.316406 5.921875 -13.515625 C 5.109375 -12.710938 4.613281 -11.441406 4.4375 -9.703125 Z M 13.65625 -9.703125 "/></g></g></g><g fill="#000000" fill-opacity="1"><g transform="translate(59.343893, 199.446711)"><g><path d="M 15.6875 -7.671875 L 4.375 -7.671875 C 4.445312 -5.671875 4.925781 -4.203125 5.8125 -3.265625 C 6.695312 -2.328125 7.914062 -1.859375 9.46875 -1.859375 C 10.644531 -1.859375 11.59375 -2.066406 12.3125 -2.484375 C 13.03125 -2.910156 13.59375 -3.570312 14 -4.46875 L 14.3125 -4.46875 L 15.890625 -3.515625 C 15.410156 -2.328125 14.644531 -1.390625 13.59375 -0.703125 C 12.550781 -0.0234375 11.175781 0.3125 9.46875 0.3125 C 7.882812 0.3125 6.519531 0 5.375 -0.625 C 4.226562 -1.25 3.347656 -2.195312 2.734375 -3.46875 C 2.117188 -4.75 1.8125 -6.332031 1.8125 -8.21875 C 1.8125 -10.09375 2.132812 -11.671875 2.78125 -12.953125 C 3.4375 -14.234375 4.328125 -15.191406 5.453125 -15.828125 C 6.578125 -16.460938 7.867188 -16.78125 9.328125 -16.78125 C 11.429688 -16.78125 13.078125 -16.179688 14.265625 -14.984375 C 15.453125 -13.796875 16.050781 -12.035156 16.0625 -9.703125 C 16.0625 -8.785156 16.039062 -8.164062 16 -7.84375 Z M 13.65625 -9.703125 C 13.613281 -11.453125 13.222656 -12.722656 12.484375 -13.515625 C 11.753906 -14.316406 10.703125 -14.71875 9.328125 -14.71875 C 7.878906 -14.71875 6.742188 -14.316406 5.921875 -13.515625 C 5.109375 -12.710938 4.613281 -11.441406 4.4375 -9.703125 Z M 13.65625 -9.703125 "/></g></g></g><g fill="#000000" fill-opacity="1"><g transform="translate(76.894543, 199.446711)"><g><path d="M 6.546875 0.3125 C 5.390625 0.3125 4.476562 -0.015625 3.8125 -0.671875 C 3.144531 -1.335938 2.8125 -2.328125 2.8125 -3.640625 L 2.8125 -23.078125 L 5.234375 -23.078125 L 5.234375 -3.8125 C 5.234375 -3.125 5.363281 -2.625 5.625 -2.3125 C 5.894531 -2.007812 6.304688 -1.859375 6.859375 -1.859375 C 7.203125 -1.859375 7.546875 -1.914062 7.890625 -2.03125 L 8.109375 -1.96875 L 8.390625 -0.0625 C 8.210938 0.0625 7.957031 0.15625 7.625 0.21875 C 7.289062 0.28125 6.929688 0.3125 6.546875 0.3125 Z M 6.546875 0.3125 "/></g></g></g><g fill="#000000" fill-opacity="1"><g transform="translate(85.848957, 199.446711)"><g><path d="M 15.6875 -7.671875 L 4.375 -7.671875 C 4.445312 -5.671875 4.925781 -4.203125 5.8125 -3.265625 C 6.695312 -2.328125 7.914062 -1.859375 9.46875 -1.859375 C 10.644531 -1.859375 11.59375 -2.066406 12.3125 -2.484375 C 13.03125 -2.910156 13.59375 -3.570312 14 -4.46875 L 14.3125 -4.46875 L 15.890625 -3.515625 C 15.410156 -2.328125 14.644531 -1.390625 13.59375 -0.703125 C 12.550781 -0.0234375 11.175781 0.3125 9.46875 0.3125 C 7.882812 0.3125 6.519531 0 5.375 -0.625 C 4.226562 -1.25 3.347656 -2.195312 2.734375 -3.46875 C 2.117188 -4.75 1.8125 -6.332031 1.8125 -8.21875 C 1.8125 -10.09375 2.132812 -11.671875 2.78125 -12.953125 C 3.4375 -14.234375 4.328125 -15.191406 5.453125 -15.828125 C 6.578125 -16.460938 7.867188 -16.78125 9.328125 -16.78125 C 11.429688 -16.78125 13.078125 -16.179688 14.265625 -14.984375 C 15.453125 -13.796875 16.050781 -12.035156 16.0625 -9.703125 C 16.0625 -8.785156 16.039062 -8.164062 16 -7.84375 Z M 13.65625 -9.703125 C 13.613281 -11.453125 13.222656 -12.722656 12.484375 -13.515625 C 11.753906 -14.316406 10.703125 -14.71875 9.328125 -14.71875 C 7.878906 -14.71875 6.742188 -14.316406 5.921875 -13.515625 C 5.109375 -12.710938 4.613281 -11.441406 4.4375 -9.703125 Z M 13.65625 -9.703125 "/></g></g></g><g fill="#000000" fill-opacity="1"><g transform="translate(103.399607, 199.446711)"><g><path d="M 2.859375 0 L 2.859375 -16.453125 L 5.171875 -16.453125 L 5.171875 -14.03125 L 5.484375 -13.96875 C 6.046875 -14.894531 6.722656 -15.59375 7.515625 -16.0625 C 8.304688 -16.539062 9.253906 -16.78125 10.359375 -16.78125 C 11.628906 -16.78125 12.613281 -16.535156 13.3125 -16.046875 C 14.007812 -15.566406 14.550781 -14.789062 14.9375 -13.71875 L 15.25 -13.71875 C 15.820312 -14.71875 16.519531 -15.476562 17.34375 -16 C 18.175781 -16.519531 19.203125 -16.78125 20.421875 -16.78125 C 22.109375 -16.78125 23.363281 -16.320312 24.1875 -15.40625 C 25.019531 -14.488281 25.4375 -13.09375 25.4375 -11.21875 L 25.4375 0 L 23.015625 0 L 23.015625 -11.15625 C 23.015625 -12.351562 22.757812 -13.234375 22.25 -13.796875 C 21.75 -14.367188 20.941406 -14.65625 19.828125 -14.65625 C 18.515625 -14.65625 17.441406 -14.175781 16.609375 -13.21875 C 15.785156 -12.269531 15.375 -10.695312 15.375 -8.5 L 15.375 0 L 12.9375 0 L 12.9375 -11.15625 C 12.9375 -12.351562 12.6875 -13.234375 12.1875 -13.796875 C 11.6875 -14.367188 10.878906 -14.65625 9.765625 -14.65625 C 8.453125 -14.65625 7.378906 -14.191406 6.546875 -13.265625 C 5.710938 -12.335938 5.296875 -10.835938 5.296875 -8.765625 L 5.296875 0 Z M 2.859375 0 "/></g></g></g><g fill="#000000" fill-opacity="1"><g transform="translate(131.456768, 199.446711)"><g><path d="M 15.6875 -7.671875 L 4.375 -7.671875 C 4.445312 -5.671875 4.925781 -4.203125 5.8125 -3.265625 C 6.695312 -2.328125 7.914062 -1.859375 9.46875 -1.859375 C 10.644531 -1.859375 11.59375 -2.066406 12.3125 -2.484375 C 13.03125 -2.910156 13.59375 -3.570312 14 -4.46875 L 14.3125 -4.46875 L 15.890625 -3.515625 C 15.410156 -2.328125 14.644531 -1.390625 13.59375 -0.703125 C 12.550781 -0.0234375 11.175781 0.3125 9.46875 0.3125 C 7.882812 0.3125 6.519531 0 5.375 -0.625 C 4.226562 -1.25 3.347656 -2.195312 2.734375 -3.46875 C 2.117188 -4.75 1.8125 -6.332031 1.8125 -8.21875 C 1.8125 -10.09375 2.132812 -11.671875 2.78125 -12.953125 C 3.4375 -14.234375 4.328125 -15.191406 5.453125 -15.828125 C 6.578125 -16.460938 7.867188 -16.78125 9.328125 -16.78125 C 11.429688 -16.78125 13.078125 -16.179688 14.265625 -14.984375 C 15.453125 -13.796875 16.050781 -12.035156 16.0625 -9.703125 C 16.0625 -8.785156 16.039062 -8.164062 16 -7.84375 Z M 13.65625 -9.703125 C 13.613281 -11.453125 13.222656 -12.722656 12.484375 -13.515625 C 11.753906 -14.316406 10.703125 -14.71875 9.328125 -14.71875 C 7.878906 -14.71875 6.742188 -14.316406 5.921875 -13.515625 C 5.109375 -12.710938 4.613281 -11.441406 4.4375 -9.703125 Z M 13.65625 -9.703125 "/></g></g></g><g fill="#000000" fill-opacity="1"><g transform="translate(149.007418, 199.446711)"><g><path d="M 2.859375 0 L 2.859375 -16.453125 L 5.171875 -16.453125 L 5.171875 -13.875 L 5.484375 -13.796875 C 6.035156 -14.765625 6.734375 -15.503906 7.578125 -16.015625 C 8.429688 -16.523438 9.472656 -16.78125 10.703125 -16.78125 C 12.679688 -16.78125 14.113281 -16.273438 15 -15.265625 C 15.894531 -14.253906 16.34375 -12.695312 16.34375 -10.59375 L 16.34375 0 L 13.90625 0 L 13.90625 -10.53125 C 13.90625 -11.53125 13.773438 -12.328125 13.515625 -12.921875 C 13.265625 -13.523438 12.875 -13.960938 12.34375 -14.234375 C 11.8125 -14.515625 11.113281 -14.65625 10.25 -14.65625 C 8.769531 -14.65625 7.570312 -14.164062 6.65625 -13.1875 C 5.75 -12.207031 5.296875 -10.628906 5.296875 -8.453125 L 5.296875 0 Z M 2.859375 0 "/></g></g></g><g fill="#000000" fill-opacity="1"><g transform="translate(167.960926, 199.446711)"><g><path d="M 11.125 -2.609375 L 11.90625 -0.859375 C 11.519531 -0.472656 11.007812 -0.179688 10.375 0.015625 C 9.75 0.210938 9.066406 0.3125 8.328125 0.3125 C 5.179688 0.3125 3.609375 -1.28125 3.609375 -4.46875 L 3.609375 -14.46875 L 0.75 -14.46875 L 0.75 -16.46875 L 3.609375 -16.46875 L 3.609375 -19.953125 L 6.046875 -20.359375 L 6.046875 -16.46875 L 11.34375 -16.46875 L 11.34375 -14.46875 L 6.046875 -14.46875 L 6.046875 -4.703125 C 6.046875 -2.804688 6.863281 -1.859375 8.5 -1.859375 C 9.394531 -1.859375 10.164062 -2.109375 10.8125 -2.609375 Z M 11.125 -2.609375 "/></g></g></g><g fill="#000000" fill-opacity="1"><g transform="translate(180.497104, 199.446711)"><g/></g></g><g fill="#000000" fill-opacity="1"><g transform="translate(187.988963, 199.446711)"><g><path d="M 2.859375 0 L 2.859375 -16.453125 L 5.171875 -16.453125 L 5.171875 -13.875 L 5.484375 -13.796875 C 6.253906 -15.671875 7.695312 -16.609375 9.8125 -16.609375 C 10.9375 -16.609375 11.78125 -16.40625 12.34375 -16 L 11.71875 -13.9375 L 11.421875 -13.875 C 10.796875 -14.1875 10.117188 -14.34375 9.390625 -14.34375 C 8.078125 -14.34375 7.066406 -13.847656 6.359375 -12.859375 C 5.648438 -11.878906 5.296875 -10.285156 5.296875 -8.078125 L 5.296875 0 Z M 2.859375 0 "/></g></g></g><g fill="#000000" fill-opacity="1"><g transform="translate(200.70423, 199.446711)"><g><path d="M 15.6875 -7.671875 L 4.375 -7.671875 C 4.445312 -5.671875 4.925781 -4.203125 5.8125 -3.265625 C 6.695312 -2.328125 7.914062 -1.859375 9.46875 -1.859375 C 10.644531 -1.859375 11.59375 -2.066406 12.3125 -2.484375 C 13.03125 -2.910156 13.59375 -3.570312 14 -4.46875 L 14.3125 -4.46875 L 15.890625 -3.515625 C 15.410156 -2.328125 14.644531 -1.390625 13.59375 -0.703125 C 12.550781 -0.0234375 11.175781 0.3125 9.46875 0.3125 C 7.882812 0.3125 6.519531 0 5.375 -0.625 C 4.226562 -1.25 3.347656 -2.195312 2.734375 -3.46875 C 2.117188 -4.75 1.8125 -6.332031 1.8125 -8.21875 C 1.8125 -10.09375 2.132812 -11.671875 2.78125 -12.953125 C 3.4375 -14.234375 4.328125 -15.191406 5.453125 -15.828125 C 6.578125 -16.460938 7.867188 -16.78125 9.328125 -16.78125 C 11.429688 -16.78125 13.078125 -16.179688 14.265625 -14.984375 C 15.453125 -13.796875 16.050781 -12.035156 16.0625 -9.703125 C 16.0625 -8.785156 16.039062 -8.164062 16 -7.84375 Z M 13.65625 -9.703125 C 13.613281 -11.453125 13.222656 -12.722656 12.484375 -13.515625 C 11.753906 -14.316406 10.703125 -14.71875 9.328125 -14.71875 C 7.878906 -14.71875 6.742188 -14.316406 5.921875 -13.515625 C 5.109375 -12.710938 4.613281 -11.441406 4.4375 -9.703125 Z M 13.65625 -9.703125 "/></g></g></g><g fill="#000000" fill-opacity="1"><g transform="translate(218.25488, 199.446711)"><g><path d="M 14.34375 6.671875 L 14.34375 -2.3125 L 14.03125 -2.375 C 13.382812 -1.445312 12.597656 -0.765625 11.671875 -0.328125 C 10.753906 0.0976562 9.695312 0.3125 8.5 0.3125 C 7.1875 0.3125 6.023438 0 5.015625 -0.625 C 4.003906 -1.25 3.21875 -2.191406 2.65625 -3.453125 C 2.09375 -4.710938 1.8125 -6.265625 1.8125 -8.109375 C 1.8125 -10.023438 2.109375 -11.628906 2.703125 -12.921875 C 3.296875 -14.210938 4.117188 -15.175781 5.171875 -15.8125 C 6.222656 -16.457031 7.4375 -16.78125 8.8125 -16.78125 C 9.914062 -16.78125 10.90625 -16.570312 11.78125 -16.15625 C 12.664062 -15.75 13.414062 -15.070312 14.03125 -14.125 L 14.34375 -14.171875 L 14.34375 -16.453125 L 16.78125 -16.453125 L 16.78125 6.671875 Z M 9.296875 -1.859375 C 10.296875 -1.859375 11.171875 -2.078125 11.921875 -2.515625 C 12.679688 -2.960938 13.273438 -3.65625 13.703125 -4.59375 C 14.128906 -5.53125 14.34375 -6.703125 14.34375 -8.109375 C 14.34375 -10.304688 13.882812 -11.9375 12.96875 -13 C 12.050781 -14.0625 10.828125 -14.59375 9.296875 -14.59375 C 6.003906 -14.59375 4.359375 -12.429688 4.359375 -8.109375 C 4.359375 -5.960938 4.785156 -4.382812 5.640625 -3.375 C 6.503906 -2.363281 7.722656 -1.859375 9.296875 -1.859375 Z M 9.296875 -1.859375 "/></g></g></g><g fill="#000000" fill-opacity="1"><g transform="translate(237.909828, 199.446711)"><g><path d="M 8.140625 0.3125 C 6.273438 0.3125 4.882812 -0.175781 3.96875 -1.15625 C 3.0625 -2.144531 2.609375 -3.585938 2.609375 -5.484375 L 2.609375 -16.453125 L 5.046875 -16.453125 L 5.046875 -5.546875 C 5.046875 -3.054688 6.21875 -1.8125 8.5625 -1.8125 C 10.050781 -1.8125 11.226562 -2.296875 12.09375 -3.265625 C 12.96875 -4.242188 13.40625 -5.828125 13.40625 -8.015625 L 13.40625 -16.453125 L 15.828125 -16.453125 L 15.828125 0 L 13.53125 0 L 13.53125 -2.578125 L 13.21875 -2.65625 C 12.65625 -1.65625 11.976562 -0.910156 11.1875 -0.421875 C 10.394531 0.0664062 9.378906 0.3125 8.140625 0.3125 Z M 8.140625 0.3125 "/></g></g></g><g fill="#000000" fill-opacity="1"><g transform="translate(256.609639, 199.446711)"><g><path d="M 4.09375 -19.640625 C 3.570312 -19.640625 3.148438 -19.800781 2.828125 -20.125 C 2.503906 -20.445312 2.34375 -20.859375 2.34375 -21.359375 C 2.34375 -21.847656 2.503906 -22.253906 2.828125 -22.578125 C 3.148438 -22.910156 3.570312 -23.078125 4.09375 -23.078125 C 4.601562 -23.078125 5.019531 -22.910156 5.34375 -22.578125 C 5.664062 -22.253906 5.828125 -21.847656 5.828125 -21.359375 C 5.828125 -20.859375 5.664062 -20.445312 5.34375 -20.125 C 5.019531 -19.800781 4.601562 -19.640625 4.09375 -19.640625 Z M 2.859375 0 L 2.859375 -16.453125 L 5.296875 -16.453125 L 5.296875 0 Z M 2.859375 0 "/></g></g></g><g fill="#000000" fill-opacity="1"><g transform="translate(264.77309, 199.446711)"><g><path d="M 2.859375 0 L 2.859375 -16.453125 L 5.171875 -16.453125 L 5.171875 -13.875 L 5.484375 -13.796875 C 6.253906 -15.671875 7.695312 -16.609375 9.8125 -16.609375 C 10.9375 -16.609375 11.78125 -16.40625 12.34375 -16 L 11.71875 -13.9375 L 11.421875 -13.875 C 10.796875 -14.1875 10.117188 -14.34375 9.390625 -14.34375 C 8.078125 -14.34375 7.066406 -13.847656 6.359375 -12.859375 C 5.648438 -11.878906 5.296875 -10.285156 5.296875 -8.078125 L 5.296875 0 Z M 2.859375 0 "/></g></g></g><g fill="#000000" fill-opacity="1"><g transform="translate(277.488357, 199.446711)"><g><path d="M 15.6875 -7.671875 L 4.375 -7.671875 C 4.445312 -5.671875 4.925781 -4.203125 5.8125 -3.265625 C 6.695312 -2.328125 7.914062 -1.859375 9.46875 -1.859375 C 10.644531 -1.859375 11.59375 -2.066406 12.3125 -2.484375 C 13.03125 -2.910156 13.59375 -3.570312 14 -4.46875 L 14.3125 -4.46875 L 15.890625 -3.515625 C 15.410156 -2.328125 14.644531 -1.390625 13.59375 -0.703125 C 12.550781 -0.0234375 11.175781 0.3125 9.46875 0.3125 C 7.882812 0.3125 6.519531 0 5.375 -0.625 C 4.226562 -1.25 3.347656 -2.195312 2.734375 -3.46875 C 2.117188 -4.75 1.8125 -6.332031 1.8125 -8.21875 C 1.8125 -10.09375 2.132812 -11.671875 2.78125 -12.953125 C 3.4375 -14.234375 4.328125 -15.191406 5.453125 -15.828125 C 6.578125 -16.460938 7.867188 -16.78125 9.328125 -16.78125 C 11.429688 -16.78125 13.078125 -16.179688 14.265625 -14.984375 C 15.453125 -13.796875 16.050781 -12.035156 16.0625 -9.703125 C 16.0625 -8.785156 16.039062 -8.164062 16 -7.84375 Z M 13.65625 -9.703125 C 13.613281 -11.453125 13.222656 -12.722656 12.484375 -13.515625 C 11.753906 -14.316406 10.703125 -14.71875 9.328125 -14.71875 C 7.878906 -14.71875 6.742188 -14.316406 5.921875 -13.515625 C 5.109375 -12.710938 4.613281 -11.441406 4.4375 -9.703125 Z M 13.65625 -9.703125 "/></g></g></g><g fill="#000000" fill-opacity="1"><g transform="translate(295.039007, 199.446711)"><g><path d="M 8.53125 0.3125 C 7.207031 0.3125 6.039062 0 5.03125 -0.625 C 4.019531 -1.257812 3.226562 -2.210938 2.65625 -3.484375 C 2.09375 -4.765625 1.8125 -6.34375 1.8125 -8.21875 C 1.8125 -10.101562 2.109375 -11.679688 2.703125 -12.953125 C 3.296875 -14.234375 4.117188 -15.191406 5.171875 -15.828125 C 6.222656 -16.460938 7.4375 -16.78125 8.8125 -16.78125 C 9.914062 -16.78125 10.90625 -16.570312 11.78125 -16.15625 C 12.65625 -15.738281 13.40625 -15.0625 14.03125 -14.125 L 14.34375 -14.171875 L 14.34375 -23.078125 L 16.78125 -23.078125 L 16.78125 0 L 14.34375 0 L 14.34375 -2.40625 L 14.03125 -2.46875 C 13.488281 -1.644531 12.757812 -0.972656 11.84375 -0.453125 C 10.925781 0.0546875 9.820312 0.3125 8.53125 0.3125 Z M 9.296875 -1.859375 C 10.828125 -1.859375 12.050781 -2.382812 12.96875 -3.4375 C 13.882812 -4.488281 14.34375 -6.082031 14.34375 -8.21875 C 14.34375 -10.375 13.882812 -11.972656 12.96875 -13.015625 C 12.050781 -14.066406 10.828125 -14.59375 9.296875 -14.59375 C 7.710938 -14.59375 6.492188 -14.078125 5.640625 -13.046875 C 4.785156 -12.023438 4.359375 -10.414062 4.359375 -8.21875 C 4.359375 -3.976562 6.003906 -1.859375 9.296875 -1.859375 Z M 9.296875 -1.859375 "/></g></g></g><g fill="#000000" fill-opacity="1"><g transform="translate(314.696557, 199.446711)"><g/></g></g></svg>