<svg xmlns="http://www.w3.org/2000/svg" xmlns:xlink="http://www.w3.org/1999/xlink" width="150" zoomAndPan="magnify" viewBox="0 0 112.5 37.5" height="50" preserveAspectRatio="xMidYMid meet" version="1.0"><defs><clipPath id="284f751af7"><path d="M 1.703125 9.066406 L 24.207031 9.066406 L 24.207031 27.941406 L 1.703125 27.941406 Z M 1.703125 9.066406 " clip-rule="nonzero"/></clipPath><clipPath id="4b35e7bd47"><path d="M 1.703125 9.457031 L 10.722656 9.457031 L 10.722656 13.03125 C 11.125 11.839844 11.738281 10.882812 12.558594 10.160156 C 13.382812 9.429688 14.632812 9.066406 16.304688 9.066406 C 20.171875 9.066406 22.105469 11.226562 22.105469 15.550781 L 22.105469 27.242188 L 24.199219 27.242188 L 24.199219 27.941406 L 13.609375 27.941406 L 13.609375 27.242188 L 15.144531 27.242188 L 15.144531 14.621094 C 15.144531 13.066406 15.046875 12.066406 14.847656 11.609375 C 14.644531 11.15625 14.28125 10.929688 13.757812 10.929688 C 12.957031 10.929688 12.253906 11.476562 11.648438 12.5625 C 11.035156 13.648438 10.730469 14.972656 10.730469 16.519531 L 10.730469 27.242188 L 12.339844 27.242188 L 12.339844 27.941406 L 1.703125 27.941406 L 1.703125 27.242188 L 3.761719 27.242188 L 3.761719 10.152344 L 1.703125 10.152344 Z M 1.703125 9.457031 " clip-rule="nonzero"/></clipPath><clipPath id="98699ae4a6"><path d="M 26.132812 3.699219 L 49.453125 3.699219 L 49.453125 27.628906 L 26.132812 27.628906 Z M 26.132812 3.699219 " clip-rule="nonzero"/></clipPath><clipPath id="febc80a831"><path d="M 49.398438 27.628906 L 38.128906 27.628906 L 38.128906 26.976562 L 40.304688 26.976562 L 35.394531 17.953125 L 30.152344 26.976562 L 33.644531 26.976562 L 33.644531 27.628906 L 26.828125 27.628906 L 26.828125 26.976562 L 29.035156 26.976562 L 34.800781 16.925781 L 27.914062 4.382812 L 26.132812 4.382812 L 26.132812 3.699219 L 37.242188 3.699219 L 37.242188 4.382812 L 35.003906 4.382812 L 39.453125 12.65625 L 44.429688 4.382812 L 41.003906 4.382812 L 41.003906 3.699219 L 47.757812 3.699219 L 47.757812 4.382812 L 45.582031 4.382812 L 40.011719 13.613281 L 47.492188 26.976562 L 49.40625 26.976562 L 49.40625 27.628906 Z M 49.398438 27.628906 " clip-rule="nonzero"/></clipPath><clipPath id="740044b95c"><path d="M 50.648438 3.699219 L 64.457031 3.699219 L 64.457031 27.941406 L 50.648438 27.941406 Z M 50.648438 3.699219 " clip-rule="nonzero"/></clipPath><clipPath id="2fb386f147"><path d="M 52.59375 22.332031 L 52.59375 10.78125 L 50.648438 10.78125 L 50.648438 10.121094 L 52.59375 10.121094 L 52.59375 5.386719 L 59.167969 3.699219 L 59.167969 10.121094 L 63.765625 10.121094 L 63.765625 10.78125 L 59.167969 10.78125 L 59.167969 23.136719 C 59.167969 24.289062 59.277344 25.128906 59.507812 25.664062 C 59.730469 26.203125 60.195312 26.472656 60.90625 26.472656 C 61.609375 26.472656 62.230469 26.105469 62.761719 25.371094 C 63.296875 24.636719 63.640625 23.632812 63.804688 22.363281 L 64.40625 22.4375 C 64.21875 24.121094 63.703125 25.464844 62.855469 26.449219 C 62.007812 27.441406 60.601562 27.933594 58.644531 27.933594 C 56.691406 27.933594 55.195312 27.53125 54.15625 26.722656 C 53.113281 25.925781 52.59375 24.460938 52.59375 22.332031 Z M 52.59375 22.332031 " clip-rule="nonzero"/></clipPath><clipPath id="899f983efb"><path d="M 68.089844 9.066406 L 85.769531 9.066406 L 85.769531 27.941406 L 68.089844 27.941406 Z M 68.089844 9.066406 " clip-rule="nonzero"/></clipPath><clipPath id="763df2b873"><path d="M 70.457031 25.410156 C 68.882812 23.722656 68.089844 21.375 68.089844 18.371094 C 68.089844 15.367188 68.976562 13.0625 70.75 11.464844 C 72.523438 9.863281 74.78125 9.066406 77.519531 9.066406 C 83.066406 9.066406 85.738281 11.957031 85.519531 17.746094 L 75.167969 17.746094 L 75.167969 19.226562 C 75.167969 21.710938 75.472656 23.59375 76.085938 24.859375 C 76.699219 26.125 77.761719 26.761719 79.277344 26.761719 C 82.117188 26.761719 83.972656 25.191406 84.859375 22.046875 L 85.519531 22.160156 C 85.054688 23.984375 84.214844 25.40625 83.007812 26.417969 C 81.796875 27.433594 79.980469 27.941406 77.558594 27.941406 C 74.402344 27.941406 72.035156 27.09375 70.457031 25.410156 Z M 75.210938 16.984375 L 78.988281 16.984375 L 78.988281 15.121094 C 78.988281 13.070312 78.867188 11.664062 78.636719 10.917969 C 78.40625 10.167969 77.941406 9.792969 77.246094 9.792969 C 76.550781 9.792969 76.03125 10.191406 75.703125 10.992188 C 75.378906 11.796875 75.210938 13.171875 75.210938 15.121094 Z M 75.210938 16.984375 " clip-rule="nonzero"/></clipPath><clipPath id="2dbd825b0f"><path d="M 88.757812 6.382812 L 111.511719 6.382812 L 111.511719 37.007812 L 88.757812 37.007812 Z M 88.757812 6.382812 " clip-rule="nonzero"/></clipPath><clipPath id="7845bbd42b"><path d="M 98.503906 6.808594 L 98.503906 10.144531 C 99.558594 7.640625 101.4375 6.382812 104.128906 6.382812 C 106.46875 6.382812 108.28125 7.257812 109.570312 9.007812 C 110.859375 10.753906 111.507812 13.40625 111.507812 16.960938 C 111.507812 20.519531 110.804688 23.136719 109.402344 24.828125 C 108.003906 26.519531 105.90625 27.367188 103.105469 27.367188 C 101.800781 27.367188 100.824219 27.195312 100.167969 26.859375 C 99.515625 26.519531 98.984375 26 98.574219 25.292969 L 98.574219 36.246094 L 103.835938 36.246094 L 103.835938 37.007812 L 88.757812 37.007812 L 88.757812 36.246094 L 91 36.246094 L 91 7.566406 L 88.835938 7.566406 L 88.835938 6.808594 Z M 103.234375 9.703125 C 102.964844 8.703125 102.4375 8.203125 101.644531 8.203125 C 100.855469 8.203125 100.148438 8.730469 99.519531 9.789062 C 98.890625 10.847656 98.582031 12.261719 98.582031 14.039062 L 98.582031 21.78125 C 98.582031 22.992188 98.8125 24.023438 99.277344 24.867188 C 99.738281 25.714844 100.417969 26.136719 101.3125 26.136719 C 102.203125 26.136719 102.820312 25.515625 103.148438 24.28125 C 103.472656 23.039062 103.640625 20.867188 103.640625 17.769531 L 103.640625 15.566406 C 103.640625 12.65625 103.507812 10.707031 103.234375 9.703125 Z M 103.234375 9.703125 " clip-rule="nonzero"/></clipPath></defs><g clip-path="url(#284f751af7)"><g clip-path="url(#4b35e7bd47)"><path fill="#ffffff" d="M 1.703125 9.066406 L 24.207031 9.066406 L 24.207031 27.941406 L 1.703125 27.941406 Z M 1.703125 9.066406 " fill-opacity="1" fill-rule="nonzero"/></g></g><g clip-path="url(#98699ae4a6)"><g clip-path="url(#febc80a831)"><path fill="#ffffff" d="M 26.132812 3.699219 L 49.398438 3.699219 L 49.398438 27.628906 L 26.132812 27.628906 Z M 26.132812 3.699219 " fill-opacity="1" fill-rule="nonzero"/></g></g><g clip-path="url(#740044b95c)"><g clip-path="url(#2fb386f147)"><path fill="#ffffff" d="M 50.648438 3.699219 L 64.402344 3.699219 L 64.402344 27.941406 L 50.648438 27.941406 Z M 50.648438 3.699219 " fill-opacity="1" fill-rule="nonzero"/></g></g><g clip-path="url(#899f983efb)"><g clip-path="url(#763df2b873)"><path fill="#ffffff" d="M 68.089844 9.066406 L 85.53125 9.066406 L 85.53125 27.941406 L 68.089844 27.941406 Z M 68.089844 9.066406 " fill-opacity="1" fill-rule="nonzero"/></g></g><g clip-path="url(#2dbd825b0f)"><g clip-path="url(#7845bbd42b)"><path fill="#ffffff" d="M 88.757812 6.382812 L 111.511719 6.382812 L 111.511719 37.007812 L 88.757812 37.007812 Z M 88.757812 6.382812 " fill-opacity="1" fill-rule="nonzero"/></g></g></svg>